<?xml version="1.0" encoding="UTF-8" standalone="no"?>
<svg
   inkscape:version="1.2.1 (9c6d41e410, 2022-07-14)"
   height="640"
   width="1280"
   sodipodi:docname="SocialCard.svg"
   id="svg16"
   version="1.1"
   y="0px"
   x="0px"
   viewBox="0 0 1280 640"
   inkscape:export-filename="SocialCard.png"
   inkscape:export-xdpi="96"
   inkscape:export-ydpi="96"
   xmlns:inkscape="http://www.inkscape.org/namespaces/inkscape"
   xmlns:sodipodi="http://sodipodi.sourceforge.net/DTD/sodipodi-0.dtd"
   xmlns="http://www.w3.org/2000/svg"
   xmlns:svg="http://www.w3.org/2000/svg"
   xmlns:rdf="http://www.w3.org/1999/02/22-rdf-syntax-ns#"
   xmlns:cc="http://creativecommons.org/ns#"
   xmlns:dc="http://purl.org/dc/elements/1.1/">
  <metadata
     id="metadata22">
    <rdf:RDF>
      <cc:Work
         rdf:about="">
        <dc:format>image/svg+xml</dc:format>
        <dc:type
           rdf:resource="http://purl.org/dc/dcmitype/StillImage" />
        <dc:title />
      </cc:Work>
    </rdf:RDF>
  </metadata>
  <defs
     id="defs20" />
  <sodipodi:namedview
     inkscape:bbox-paths="true"
     inkscape:snap-nodes="false"
     inkscape:snap-global="true"
     borderlayer="true"
     width="1280mm"
     units="px"
     inkscape:current-layer="svg16"
     inkscape:window-maximized="1"
     inkscape:window-y="-8"
     inkscape:window-x="-8"
     inkscape:cy="320"
     inkscape:cx="664.06504"
     inkscape:zoom="1.5375"
     inkscape:snap-page="true"
     inkscape:bbox-nodes="true"
     inkscape:snap-bbox="true"
     fit-margin-bottom="1"
     fit-margin-right="0"
     fit-margin-left="1"
     fit-margin-top="1"
     showgrid="true"
     id="namedview18"
     inkscape:window-height="1377"
     inkscape:window-width="2560"
     inkscape:pageshadow="2"
     inkscape:pageopacity="0"
     guidetolerance="10"
     gridtolerance="10"
     objecttolerance="10"
     borderopacity="1"
     inkscape:document-rotation="0"
     bordercolor="#666666"
     pagecolor="#ffffff"
     inkscape:showpageshadow="2"
     inkscape:pagecheckerboard="0"
     inkscape:deskcolor="#d1d1d1"
     showguides="true">
    <sodipodi:guide
       id="guide877"
       orientation="0,4837.7953"
       position="160,2338.8976"
       inkscape:locked="false" />
    <sodipodi:guide
       id="guide879"
       orientation="2418.8976,0"
       position="1200,672"
       inkscape:locked="false" />
    <sodipodi:guide
       id="guide881"
       orientation="0,-4837.7953"
       position="1224,80"
       inkscape:locked="false" />
    <sodipodi:guide
       id="guide883"
       orientation="-2418.8976,0"
       position="80,645.3441"
       inkscape:locked="false" />
    <inkscape:grid
       spacingy="8"
       spacingx="8"
       id="grid885"
       type="xygrid" />
    <sodipodi:guide
       position="80,560"
       orientation="0,-1"
       id="guide3336"
       inkscape:locked="false" />
  </sodipodi:namedview>
  <rect
     ry="0"
     y="0"
     x="0"
     height="640"
     width="1280"
     id="rect855"
     style="fill:#ffe5f2;fill-opacity:1;stroke:none;stroke-width:0;stroke-linejoin:round;stroke-miterlimit:4;stroke-dasharray:none" />
  <text
     id="text835"
     y="185.03845"
     x="1203.5692"
     style="font-style:normal;font-variant:normal;font-weight:bold;font-stretch:normal;font-size:134.659px;line-height:1.25;font-family:Repo;-inkscape-font-specification:'Repo, Bold';font-variant-ligatures:normal;font-variant-caps:normal;font-variant-numeric:normal;font-variant-east-asian:normal;text-align:end;letter-spacing:0px;word-spacing:0px;text-anchor:end;fill:#331524;fill-opacity:1;stroke:none;stroke-width:0.315607"
     xml:space="preserve"
     transform="scale(1.0000554,0.9999446)"><tspan
       sodipodi:role="line"
       id="tspan3326"
       x="1203.5692"
       y="185.03845"
       style="text-align:end;text-anchor:end;stroke-width:0.315607">Buildvana SDK</tspan></text>
  <text
     transform="scale(0.87317842,1.1452413)"
     id="text839"
     y="337.79294"
     x="1378.473"
     style="font-style:normal;font-variant:normal;font-weight:500;font-stretch:normal;font-size:74.7046px;line-height:1.25;font-family:Repo;-inkscape-font-specification:'Repo Medium';font-variant-ligatures:normal;font-variant-caps:normal;font-variant-numeric:normal;font-variant-east-asian:normal;text-align:end;letter-spacing:0px;word-spacing:0px;text-anchor:end;fill:#331522;fill-opacity:1;stroke:none;stroke-width:0.233453"
     xml:space="preserve"><tspan
       style="text-align:end;text-anchor:end;stroke-width:0.233453"
       y="337.79294"
       x="1378.473"
       id="tspan939"
       sodipodi:role="line">Develop in a state of bliss</tspan></text>
  <g
     inkscape:transform-center-y="-0.38242364"
     inkscape:transform-center-x="-45.125929"
     transform="matrix(5.3631804,0,0,5.3631804,63.53115,180.35378)"
     id="g848">
    <path
       id="path846"
       d="m 58.341713,39.385133 c 0.325565,-0.612146 0.637432,-1.538267 0.32135,-2.537086 -0.316082,-0.99882 -1.026213,-1.630984 -1.542481,-1.980781 -0.07797,-0.547876 -0.272884,-1.350725 -0.754382,-2.025033 -0.632164,-0.882923 -1.592,-1.304366 -2.040837,-1.461353 -0.842886,-0.637432 -1.634145,-0.848154 -2.327418,-0.607931 -1.844866,0.637432 -1.708951,2.706716 -1.599376,4.369308 0.131701,2.001853 0.12854,3.253539 -1.030427,3.717126 -0.459373,0.183327 -1.072572,0.02423 -1.685772,-0.437247 -1.030427,-0.775455 -1.33492,-2.268416 -0.70697,-3.476904 1.723701,-3.294629 3.863577,-7.403696 3.863577,-11.338919 0,-4.890844 -2.038729,-9.456122 -5.740051,-12.854005 a 19.372673,19.372673 0 0 0 -26.194779,0 c -3.701321,3.401044 -5.740051,7.966322 -5.740051,12.854005 0,3.93733 2.139876,8.043237 3.859363,11.343134 0.632164,1.204273 0.323457,2.697234 -0.708024,3.476903 -0.611092,0.46148 -1.225345,0.619521 -1.685771,0.437247 -0.773348,-0.30976 -1.228506,-0.714345 -1.030428,-3.717126 0.105361,-1.662592 0.245491,-3.731876 -1.599375,-4.369308 -0.693274,-0.240222 -1.488747,-0.0295 -2.3274177,0.607931 -0.4488369,0.156988 -1.4097265,0.57843 -2.0408372,1.461353 -0.4814984,0.674309 -0.6764157,1.47505 -0.7543826,2.025033 -0.5162675,0.349797 -1.2285059,0.98723 -1.5424808,1.980781 -0.3139749,0.993552 0,1.92494 0.3213502,2.537086 -0.3792986,0.607931 -0.7691332,1.553017 -0.4888737,2.612946 0.2549729,0.966157 0.9124237,1.587785 1.4655675,1.956548 a 3.4147405,3.4147405 0 0 0 0.954568,2.780469 3.2588066,3.2588066 0 0 0 2.2884346,1.018838 2.603463,2.603463 0 0 0 1.6436267,1.645734 3.4463487,3.4463487 0 0 0 1.143163,0.2044 c -1.545641,0.897673 -2.9290267,1.81115 -2.9290267,3.681303 0,1.360207 0.7470067,2.487566 2.1072137,3.172411 0.14013,0.07059 0.285528,0.135915 0.437247,0.198078 a 3.3936683,3.3936683 0 0 0 2.959582,1.685771 4.1733376,4.1733376 0 0 0 2.586605,-0.881869 5.1626746,5.1626746 0 0 0 2.828935,0.324511 4.7896977,4.7896977 0 0 0 2.766772,-1.483479 c 0.80917,0.269724 2.069284,0.421443 3.496922,-0.369816 1.207434,-0.671147 1.797454,-1.543534 2.080874,-2.156733 0.02739,-0.059 0.05163,-0.116951 0.07481,-0.172792 a 4.3935414,4.3935414 0 0 0 2.612945,-0.816545 2.5549971,2.5549971 0 0 0 0.316083,-0.264456 2.5549971,2.5549971 0 0 0 0.316082,0.264456 4.389327,4.389327 0 0 0 2.615052,0.814438 c 0.02318,0.05584 0.04741,0.113789 0.07481,0.172791 0.28342,0.6132 0.87344,1.485586 2.080873,2.156734 1.427638,0.793366 2.687752,0.63954 3.496922,0.369816 a 4.7896977,4.7896977 0 0 0 2.766772,1.4898 5.1626746,5.1626746 0 0 0 2.826828,-0.328725 4.1733376,4.1733376 0 0 0 2.592927,0.878708 3.3936683,3.3936683 0 0 0 2.959582,-1.685771 c 0.15172,-0.06216 0.297118,-0.127486 0.437247,-0.198078 1.355993,-0.684845 2.107214,-1.812204 2.107214,-3.172411 0,-1.870152 -1.383386,-2.78363 -2.929027,-3.681303 a 3.4463487,3.4463487 0 0 0 1.143163,-0.2044 2.603463,2.603463 0 0 0 1.637306,-1.642573 3.2588066,3.2588066 0 0 0 2.28422,-1.023053 3.4147405,3.4147405 0 0 0 0.954568,-2.780469 c 0.553144,-0.368762 1.210594,-0.99039 1.465567,-1.956548 0.282367,-1.059929 -0.107468,-2.005014 -0.489927,-2.612945 z"
       style="opacity:1;fill:#ffe5f2;fill-opacity:1;stroke:#fff7fa;stroke-width:4;stroke-miterlimit:4;stroke-dasharray:none;stroke-opacity:1;stop-opacity:1"
       inkscape:connector-curvature="0" />
    <path
       style="opacity:1;fill:#662947;fill-opacity:1;stroke:none;stroke-width:0.105361;stop-opacity:1"
       inkscape:connector-curvature="0"
       d="m 40.629525,21.906845 a 1.0536071,1.0536071 0 0 0 -1.053607,1.053607 1.2137553,1.2137553 0 0 1 -2.423297,0 1.0536071,1.0536071 0 1 0 -2.107214,0 3.3209694,3.3209694 0 0 0 6.637725,0 1.0536071,1.0536071 0 0 0 -1.053607,-1.053607 z m -11.533837,1.053607 a 1.0536071,1.0536071 0 0 0 -2.107214,0 1.2137553,1.2137553 0 1 1 -2.423296,0 1.0536071,1.0536071 0 1 0 -2.107214,0 3.3209694,3.3209694 0 1 0 6.637724,0 z m 29.246025,16.424681 c 0.325565,-0.612146 0.637432,-1.538267 0.32135,-2.537086 -0.316082,-0.99882 -1.026213,-1.630984 -1.542481,-1.980781 -0.07797,-0.547876 -0.272884,-1.350725 -0.754382,-2.025033 -0.632164,-0.882923 -1.592,-1.304366 -2.040837,-1.461353 -0.842886,-0.637432 -1.634145,-0.848154 -2.327418,-0.607931 -1.844866,0.637432 -1.708951,2.706716 -1.599376,4.369308 0.131701,2.001853 0.12854,3.253539 -1.030427,3.717126 -0.459373,0.183327 -1.072572,0.02423 -1.685772,-0.437247 -1.030427,-0.775455 -1.33492,-2.268416 -0.70697,-3.476904 1.723701,-3.294629 3.863577,-7.403696 3.863577,-11.338919 0,-4.890844 -2.038729,-9.456122 -5.740051,-12.854005 a 19.372673,19.372673 0 0 0 -26.194779,0 c -3.701321,3.401044 -5.740051,7.966322 -5.740051,12.854005 0,3.93733 2.139876,8.043237 3.859363,11.343134 0.632164,1.204273 0.323457,2.697234 -0.708024,3.476903 -0.611092,0.46148 -1.225345,0.619521 -1.685771,0.437247 -0.773348,-0.30976 -1.228506,-0.714345 -1.030428,-3.717126 0.105361,-1.662592 0.245491,-3.731876 -1.599375,-4.369308 -0.693274,-0.240222 -1.488747,-0.0295 -2.3274177,0.607931 -0.4488369,0.156988 -1.4097265,0.57843 -2.0408372,1.461353 -0.4814984,0.674309 -0.6764157,1.47505 -0.7543826,2.025033 -0.5162675,0.349797 -1.2285059,0.98723 -1.5424808,1.980781 -0.3139749,0.993552 0,1.92494 0.3213502,2.537086 -0.3792986,0.607931 -0.7691332,1.553017 -0.4888737,2.612946 0.2549729,0.966157 0.9124237,1.587785 1.4655675,1.956548 a 3.4147405,3.4147405 0 0 0 0.954568,2.780469 3.2588066,3.2588066 0 0 0 2.2884346,1.018838 2.603463,2.603463 0 0 0 1.6436267,1.645734 3.4463487,3.4463487 0 0 0 1.143163,0.2044 c -1.545641,0.897673 -2.9290267,1.81115 -2.9290267,3.681303 0,1.360207 0.7470067,2.487566 2.1072137,3.172411 0.14013,0.07059 0.285528,0.135915 0.437247,0.198078 a 3.3936683,3.3936683 0 0 0 2.959582,1.685771 4.1733376,4.1733376 0 0 0 2.586605,-0.881869 5.1626746,5.1626746 0 0 0 2.828935,0.324511 4.7896977,4.7896977 0 0 0 2.766772,-1.483479 c 0.80917,0.269724 2.069284,0.421443 3.496922,-0.369816 1.207434,-0.671147 1.797454,-1.543534 2.080874,-2.156733 0.02739,-0.059 0.05163,-0.116951 0.07481,-0.172792 a 4.3935414,4.3935414 0 0 0 2.612945,-0.816545 2.5549971,2.5549971 0 0 0 0.316083,-0.264456 2.5549971,2.5549971 0 0 0 0.316082,0.264456 4.389327,4.389327 0 0 0 2.615052,0.814438 c 0.02318,0.05584 0.04741,0.113789 0.07481,0.172791 0.28342,0.6132 0.87344,1.485586 2.080873,2.156734 1.427638,0.793366 2.687752,0.63954 3.496922,0.369816 a 4.7896977,4.7896977 0 0 0 2.766772,1.4898 5.1626746,5.1626746 0 0 0 2.826828,-0.328725 4.1733376,4.1733376 0 0 0 2.592927,0.878708 3.3936683,3.3936683 0 0 0 2.959582,-1.685771 c 0.15172,-0.06216 0.297118,-0.127486 0.437247,-0.198078 1.355993,-0.684845 2.107214,-1.812204 2.107214,-3.172411 0,-1.870152 -1.383386,-2.78363 -2.929027,-3.681303 a 3.4463487,3.4463487 0 0 0 1.143163,-0.2044 2.603463,2.603463 0 0 0 1.637306,-1.642573 3.2588066,3.2588066 0 0 0 2.28422,-1.023053 3.4147405,3.4147405 0 0 0 0.954568,-2.780469 c 0.553144,-0.368762 1.210594,-0.99039 1.465567,-1.956548 0.282367,-1.059929 -0.107468,-2.005014 -0.489927,-2.612945 z m -6.180459,13.907613 c 0,0.378245 -0.105361,0.868172 -0.948246,1.291722 -0.772294,0.389835 -1.931262,0.596342 -3.349417,0.596342 -0.383513,0 -0.778616,-0.01581 -1.182147,-0.04531 a 1.0409638,1.0409638 0 0 0 -0.162256,-0.03898 0.95456799,0.95456799 0 0 0 -0.29501,0 22.711554,22.711554 0 0 1 -4.8782,-1.053607 1.1863615,1.1863615 0 0 0 -0.218097,-0.07586 h -0.01475 c -1.693147,-0.582643 -3.30622,-1.355991 -4.635872,-2.282112 a 1.0788936,1.0788936 0 0 0 -0.131701,-0.115896 0.98828342,0.98828342 0 0 0 -0.167523,-0.09693 c -1.874367,-1.383386 -3.122891,-3.082854 -3.122891,-4.974079 a 1.0536071,1.0536071 0 0 0 -2.107214,0 c 0,1.903868 -1.264329,3.608604 -3.160822,4.993044 a 1.0051411,1.0051411 0 0 0 -0.111682,0.06638 0.98196178,0.98196178 0 0 0 -0.119058,0.09799 c -1.332813,0.930335 -2.950099,1.707897 -4.6443,2.293703 l -0.03372,0.0053 a 0.95456799,0.95456799 0 0 0 -0.252866,0.09166 22.772663,22.772663 0 0 1 -4.846592,1.047285 0.95456799,0.95456799 0 0 0 -0.29501,0 1.0409638,1.0409638 0 0 0 -0.162256,0.03898 c -0.403531,0.0295 -0.798634,0.0453 -1.182147,0.0453 -1.418154,0 -2.577122,-0.210722 -3.349416,-0.596342 -0.842886,-0.421443 -0.948246,-0.913477 -0.948246,-1.291722 0,-0.709078 0.598448,-1.121038 2.18202,-2.034515 2.089302,-1.205327 4.951953,-2.856329 6.799979,-7.098151 a 1.0540753,1.0540753 0 0 0 -1.932315,-0.842886 c -0.737525,1.693147 -1.660485,2.898473 -2.634018,3.815111 -0.480444,-0.02107 -2.739378,-0.188595 -4.788643,-1.407619 l -0.01791,-0.01686 A 0.97353292,0.97353292 0 0 0 11.22862,45.572967 6.9137695,6.9137695 0 0 1 8.8327182,43.023238 c -0.00632,-0.01686 -0.01159,-0.03477 -0.018965,-0.05163 A 0.96299685,0.96299685 0 0 0 8.7199822,42.804087 7.0834002,7.0834002 0 0 1 8.3480589,41.885342 7.1740105,7.1740105 0 0 1 7.999315,39.538959 a 0.99039063,0.99039063 0 0 0 0,-0.158041 c 0.077967,-2.195717 1.0683576,-3.97842 1.4571383,-4.596887 0.8407787,-1.322277 1.6278227,-1.869099 1.9186187,-1.980782 0.251812,0.246544 0.175952,1.411834 0.123272,2.200985 -0.06427,0.977748 -0.136969,2.087196 0.09061,3.094444 0.299224,1.322277 1.059928,2.236808 2.26104,2.718307 1.158968,0.462533 2.519175,0.204399 3.733984,-0.710132 1.843812,-1.388654 2.406438,-4.023725 1.30858,-6.129885 -1.613073,-3.095498 -3.621248,-6.948539 -3.621248,-10.369601 0,-4.293449 1.7964,-8.308745 5.057314,-11.305203 a 17.264405,17.264405 0 0 1 23.343718,0 c 3.266182,2.996458 5.057314,7.011754 5.057314,11.305203 0,3.421062 -2.008175,7.269889 -3.621248,10.369601 -1.097858,2.107214 -0.535232,4.741231 1.30858,6.129885 1.214809,0.914531 2.575016,1.172665 3.733984,0.710132 1.201112,-0.480445 1.961816,-1.394976 2.261041,-2.717253 0.227579,-1.007248 0.15488,-2.116697 0.09061,-3.094444 -0.05268,-0.789152 -0.12854,-1.954441 0.123272,-2.200985 0.290795,0.105361 1.082054,0.658504 1.914404,1.980781 0.388781,0.617414 1.378118,2.399063 1.457138,4.592673 a 1.0272669,1.0272669 0 0 0 0,0.161202 7.0697034,7.0697034 0 0 1 -0.742793,3.307273 c -0.02318,0.03898 -0.0453,0.07902 -0.06532,0.120111 l -0.02107,0.05373 a 6.7968191,6.7968191 0 0 1 -2.305293,2.502317 0.99776588,0.99776588 0 0 0 -0.316082,0.162255 0.93244225,0.93244225 0 0 0 -0.112736,0.100093 9.3370657,9.3370657 0 0 1 -1.313848,0.621628 11.505389,11.505389 0 0 1 -3.377864,0.723828 c -0.972484,-0.917688 -1.896498,-2.121961 -2.634023,-3.815107 a 1.0540753,1.0540753 0 0 0 -1.932315,0.842886 c 1.848027,4.241822 4.710677,5.892824 6.79998,7.09815 1.589893,0.912424 2.188342,1.324384 2.188342,2.033462 z M 38.513882,28.110483 a 1.0536071,1.0536071 0 0 0 -1.323331,0.67747 c -0.0432,0.126433 -1.10418,3.107087 -5.312286,3.107087 -4.208107,0 -5.268036,-2.980654 -5.309126,-3.098658 a 1.0536071,1.0536071 0 1 0 -2.001854,0.6427 c 0.059,0.186488 1.529838,4.563172 7.315194,4.563172 5.785356,0 7.251977,-4.376684 7.312033,-4.564226 a 1.0536071,1.0536071 0 0 0 -0.68063,-1.327545 z"
       id="path10" />
  </g>
  <text
     id="text835-8-9"
     y="552.04523"
     x="1201.131"
     style="font-style:normal;font-variant:normal;font-weight:bold;font-stretch:normal;font-size:39.2563px;line-height:1.25;font-family:'Courier Prime';-inkscape-font-specification:'Courier Prime, Bold';font-variant-ligatures:normal;font-variant-caps:normal;font-variant-numeric:normal;font-variant-east-asian:normal;text-align:end;letter-spacing:0px;word-spacing:0px;text-anchor:end;fill:#331524;fill-opacity:1;stroke:none;stroke-width:0.464583"
     xml:space="preserve"><tspan
       sodipodi:role="line"
       id="tspan6052"
       x="1201.131"
       y="552.04523">https://github.com/Tenacom/Buildvana.Sdk</tspan></text>
</svg>
