<?xml version="1.0" encoding="UTF-8" standalone="no"?>
<svg
   inkscape:version="1.2.1 (9c6d41e410, 2022-07-14)"
   height="64"
   width="64"
   sodipodi:docname="SquareLogo.svg"
   id="svg16"
   version="1.1"
   y="0px"
   x="0px"
   viewBox="0 0 64.000001 64"
   inkscape:export-filename="PackageIcon.png"
   inkscape:export-xdpi="768"
   inkscape:export-ydpi="768"
   xmlns:inkscape="http://www.inkscape.org/namespaces/inkscape"
   xmlns:sodipodi="http://sodipodi.sourceforge.net/DTD/sodipodi-0.dtd"
   xmlns="http://www.w3.org/2000/svg"
   xmlns:svg="http://www.w3.org/2000/svg"
   xmlns:rdf="http://www.w3.org/1999/02/22-rdf-syntax-ns#"
   xmlns:cc="http://creativecommons.org/ns#"
   xmlns:dc="http://purl.org/dc/elements/1.1/">
  <metadata
     id="metadata22">
    <rdf:RDF>
      <cc:Work
         rdf:about="">
        <dc:format>image/svg+xml</dc:format>
        <dc:type
           rdf:resource="http://purl.org/dc/dcmitype/StillImage" />
        <dc:title />
      </cc:Work>
    </rdf:RDF>
  </metadata>
  <defs
     id="defs20" />
  <sodipodi:namedview
     inkscape:current-layer="g848"
     inkscape:window-maximized="1"
     inkscape:window-y="-8"
     inkscape:window-x="-8"
     inkscape:cy="31.972052"
     inkscape:cx="25.236681"
     inkscape:zoom="17.890625"
     inkscape:snap-page="true"
     inkscape:bbox-nodes="true"
     inkscape:snap-bbox="true"
     fit-margin-bottom="1"
     fit-margin-right="0"
     fit-margin-left="1"
     fit-margin-top="1"
     showgrid="true"
     id="namedview18"
     inkscape:window-height="1377"
     inkscape:window-width="2560"
     inkscape:pageshadow="2"
     inkscape:pageopacity="0"
     guidetolerance="10"
     gridtolerance="10"
     objecttolerance="10"
     borderopacity="1"
     inkscape:document-rotation="0"
     bordercolor="#666666"
     pagecolor="#ffffff"
     inkscape:showpageshadow="2"
     inkscape:pagecheckerboard="0"
     inkscape:deskcolor="#d1d1d1">
    <inkscape:grid
       originy="0"
       originx="0"
       id="grid850"
       type="xygrid" />
  </sodipodi:namedview>
  <g
     id="g848">
    <path
       style="fill:#ffe5f2;fill-opacity:1;opacity:1;stop-opacity:1;stroke:#fff7fa;stroke-dasharray:none;stroke-miterlimit:4;stroke-opacity:1;stroke-width:4.30776"
       d="M 60.3685 39.9534 C 60.7191 39.2942 61.055 38.2968 60.7146 37.2211 C 60.3742 36.1454 59.6094 35.4646 59.0534 35.0879 C 58.9694 34.4979 58.7595 33.6333 58.241 32.9071 C 57.5602 31.9562 56.5265 31.5024 56.0431 31.3333 C 55.1354 30.6468 54.2833 30.4199 53.5366 30.6786 C 51.5498 31.3651 51.6962 33.5936 51.8142 35.3841 C 51.956 37.5399 51.9526 38.8879 50.7045 39.3872 C 50.2098 39.5846 49.5494 39.4133 48.889 38.9163 C 47.7793 38.0812 47.4514 36.4734 48.1277 35.1719 C 49.984 31.6238 52.2885 27.1986 52.2885 22.9606 C 52.2885 17.6934 50.0929 12.7769 46.1068 9.11756 C 38.1282 1.79687 25.8752 1.79687 17.8966 9.11756 C 13.9105 12.7803 11.7149 17.6968 11.7149 22.9606 C 11.7149 27.2008 14.0194 31.6226 15.8712 35.1764 C 16.552 36.4734 16.2196 38.0812 15.1087 38.9208 C 14.4506 39.4178 13.7891 39.588 13.2932 39.3917 C 12.4604 39.0581 11.9702 38.6224 12.1835 35.3886 C 12.297 33.5981 12.4479 31.3696 10.4611 30.6831 C 9.71449 30.4244 8.85781 30.6514 7.95461 31.3378 C 7.47124 31.5069 6.43642 31.9608 5.75675 32.9116 C 5.23821 33.6378 5.02829 34.5002 4.94433 35.0925 C 4.38834 35.4692 3.6213 36.1556 3.28317 37.2256 C 2.94504 38.2956 3.28317 39.2987 3.62924 39.9579 C 3.22076 40.6126 2.80093 41.6304 3.10276 42.7719 C 3.37735 43.8124 4.08538 44.4819 4.68108 44.879 C 4.55457 45.9811 4.93232 47.0814 5.7091 47.8734 C 6.3516 48.5529 7.23873 48.9478 8.1736 48.9706 C 8.45226 49.8068 9.10788 50.4633 9.94369 50.743 C 10.3387 50.8855 10.7549 50.9599 11.1748 50.9631 C 9.51025 51.9299 8.02042 52.9136 8.02042 54.9277 C 8.02042 56.3925 8.8249 57.6066 10.2898 58.3442 C 10.4407 58.4202 10.5973 58.4905 10.7607 58.5575 C 11.4205 59.6906 12.6368 60.3834 13.9479 60.3729 C 14.9568 60.378 15.9379 60.0435 16.7336 59.4232 C 17.6963 59.823 18.7519 59.9441 19.7802 59.7727 C 20.9246 59.59 21.9743 59.0272 22.7598 58.1751 C 23.6312 58.4656 24.9883 58.629 26.5258 57.7768 C 27.8261 57.054 28.4615 56.1145 28.7668 55.4541 C 28.7963 55.3906 28.8224 55.3282 28.8473 55.2681 C 29.855 55.2821 30.8409 54.974 31.6613 54.3887 C 31.7823 54.3031 31.8961 54.2078 32.0017 54.1039 C 32.1073 54.2078 32.2212 54.3031 32.3421 54.3887 C 33.1633 54.974 34.1501 55.2813 35.1584 55.2658 C 35.1833 55.3259 35.2094 55.3883 35.2389 55.4519 C 35.5442 56.1123 36.1796 57.0518 37.4799 57.7745 C 39.0174 58.629 40.3745 58.4633 41.2459 58.1728 C 42.0304 59.0275 43.0801 59.5927 44.2255 59.7772 C 45.2534 59.9468 46.3083 59.8241 47.2699 59.4232 C 48.0678 60.0437 49.0515 60.3771 50.0623 60.3695 C 51.3735 60.3799 52.5897 59.6872 53.2496 58.5541 C 53.413 58.4871 53.5696 58.4168 53.7205 58.3407 C 55.1808 57.6032 55.9898 56.3891 55.9898 54.9243 C 55.9898 52.9102 54.5 51.9264 52.8354 50.9597 C 53.2553 50.9565 53.6716 50.8821 54.0665 50.7396 C 54.899 50.4588 55.5517 49.804 55.8298 48.9706 C 56.7638 48.9455 57.6491 48.5489 58.2898 47.8689 C 59.0666 47.0769 59.4443 45.9766 59.3178 44.8745 C 59.9135 44.4773 60.6215 43.8079 60.8961 42.7674 C 61.2002 41.6259 60.7804 40.6081 60.3685 39.9534 Z"
       id="path846" />
    <path
       id="path10"
       d="M 41.2935 21.1303 C 40.6669 21.1303 40.1589 21.6383 40.1589 22.265 C 40.1181 22.9558 39.546 23.4952 38.854 23.4952 C 38.162 23.4952 37.5899 22.9558 37.5491 22.265 C 37.5493 21.8595 37.3331 21.4847 36.9819 21.2819 C 36.6308 21.0791 36.1981 21.0791 35.847 21.2819 C 35.4958 21.4847 35.2796 21.8595 35.2798 22.265 C 35.3484 24.1894 36.9283 25.7141 38.854 25.7141 C 40.7797 25.7141 42.3596 24.1894 42.4282 22.265 C 42.4282 21.6383 41.9202 21.1303 41.2935 21.1303 Z M 28.8723 22.265 C 28.872 21.6385 28.3641 21.1308 27.7376 21.1308 C 27.1111 21.1308 26.6032 21.6385 26.6029 22.265 C 26.6315 22.7496 26.3893 23.21 25.9737 23.461 C 25.5582 23.7119 25.0379 23.7119 24.6224 23.461 C 24.2069 23.21 23.9646 22.7496 23.9932 22.265 C 23.9934 21.8595 23.7771 21.4847 23.426 21.2819 C 23.0749 21.0791 22.6422 21.0791 22.291 21.2819 C 21.9399 21.4847 21.7237 21.8595 21.7238 22.265 C 21.6773 23.5723 22.3481 24.8008 23.4732 25.4683 C 24.5982 26.1357 25.9979 26.1357 27.123 25.4683 C 28.248 24.8008 28.9189 23.5723 28.8723 22.265 Z M 60.3685 39.9534 C 60.7191 39.2942 61.055 38.2968 60.7146 37.2211 C 60.3742 36.1454 59.6094 35.4646 59.0534 35.0879 C 58.9694 34.4979 58.7595 33.6333 58.241 32.9071 C 57.5602 31.9562 56.5265 31.5024 56.0431 31.3333 C 55.1354 30.6468 54.2833 30.4199 53.5366 30.6786 C 51.5498 31.3651 51.6962 33.5936 51.8142 35.3841 C 51.956 37.5399 51.9526 38.8879 50.7045 39.3872 C 50.2098 39.5846 49.5494 39.4133 48.889 38.9163 C 47.7793 38.0812 47.4514 36.4734 48.1277 35.1719 C 49.984 31.6238 52.2885 27.1986 52.2885 22.9606 C 52.2885 17.6934 50.0929 12.7769 46.1068 9.11756 C 38.1282 1.79687 25.8752 1.79687 17.8966 9.11756 C 13.9105 12.7803 11.7149 17.6968 11.7149 22.9606 C 11.7149 27.2008 14.0194 31.6226 15.8712 35.1764 C 16.552 36.4734 16.2196 38.0812 15.1087 38.9208 C 14.4506 39.4178 13.7891 39.588 13.2932 39.3917 C 12.4604 39.0581 11.9702 38.6224 12.1835 35.3886 C 12.297 33.5981 12.4479 31.3696 10.4611 30.6831 C 9.71449 30.4244 8.85781 30.6514 7.95461 31.3378 C 7.47124 31.5069 6.43642 31.9608 5.75675 32.9116 C 5.23821 33.6378 5.02829 34.5002 4.94433 35.0925 C 4.38834 35.4692 3.6213 36.1556 3.28317 37.2256 C 2.94504 38.2956 3.28317 39.2987 3.62924 39.9579 C 3.22076 40.6126 2.80093 41.6304 3.10276 42.7719 C 3.37735 43.8124 4.08538 44.4819 4.68108 44.879 C 4.55457 45.9811 4.93232 47.0814 5.7091 47.8734 C 6.3516 48.5529 7.23873 48.9478 8.1736 48.9706 C 8.45226 49.8068 9.10788 50.4633 9.94369 50.743 C 10.3387 50.8855 10.7549 50.9599 11.1748 50.9631 C 9.51025 51.9299 8.02042 52.9136 8.02042 54.9277 C 8.02042 56.3925 8.8249 57.6066 10.2898 58.3442 C 10.4407 58.4202 10.5973 58.4905 10.7607 58.5575 C 11.4205 59.6906 12.6368 60.3834 13.9479 60.3729 C 14.9568 60.378 15.9379 60.0435 16.7336 59.4232 C 17.6963 59.823 18.7519 59.9441 19.7802 59.7727 C 20.9246 59.59 21.9743 59.0272 22.7598 58.1751 C 23.6312 58.4656 24.9883 58.629 26.5258 57.7768 C 27.8261 57.054 28.4615 56.1145 28.7668 55.4541 C 28.7963 55.3906 28.8224 55.3282 28.8473 55.2681 C 29.855 55.2821 30.8409 54.974 31.6613 54.3887 C 31.7823 54.3031 31.8961 54.2078 32.0017 54.1039 C 32.1073 54.2078 32.2212 54.3031 32.3421 54.3887 C 33.1633 54.974 34.1501 55.2813 35.1584 55.2658 C 35.1833 55.3259 35.2094 55.3883 35.2389 55.4519 C 35.5442 56.1123 36.1796 57.0518 37.4799 57.7745 C 39.0174 58.629 40.3745 58.4633 41.2459 58.1728 C 42.0304 59.0275 43.0801 59.5927 44.2255 59.7772 C 45.2534 59.9468 46.3083 59.8241 47.2699 59.4232 C 48.0678 60.0437 49.0515 60.3771 50.0623 60.3695 C 51.3735 60.3799 52.5897 59.6872 53.2496 58.5541 C 53.413 58.4871 53.5696 58.4168 53.7205 58.3407 C 55.1808 57.6032 55.9898 56.3891 55.9898 54.9243 C 55.9898 52.9102 54.5 51.9264 52.8354 50.9597 C 53.2553 50.9565 53.6716 50.8821 54.0665 50.7396 C 54.899 50.4588 55.5517 49.804 55.8298 48.9706 C 56.7638 48.9455 57.6491 48.5489 58.2898 47.8689 C 59.0666 47.0769 59.4443 45.9766 59.3178 44.8745 C 59.9135 44.4773 60.6215 43.8079 60.8961 42.7674 C 61.2002 41.6259 60.7804 40.6081 60.3685 39.9534 Z M 53.7125 54.9311 C 53.7125 55.3384 53.599 55.866 52.6913 56.3222 C 51.8596 56.742 50.6115 56.9644 49.0842 56.9644 C 48.6712 56.9644 48.2457 56.9474 47.8111 56.9156 C 47.7541 56.8969 47.6956 56.8829 47.6363 56.8736 C 47.5311 56.8572 47.4239 56.8572 47.3186 56.8736 C 45.5311 56.6895 43.7693 56.309 42.0651 55.7389 C 41.9897 55.7041 41.911 55.6768 41.8302 55.6572 L 41.8143 55.6572 C 39.9909 55.0298 38.2537 54.1969 36.8218 53.1996 C 36.778 53.1542 36.7305 53.1124 36.68 53.0747 C 36.6234 53.0341 36.563 52.9992 36.4995 52.9703 C 34.481 51.4805 33.1364 49.6503 33.1364 47.6136 C 33.1361 46.9871 32.6282 46.4794 32.0017 46.4794 C 31.3752 46.4794 30.8673 46.9871 30.867 47.6136 C 30.867 49.6639 29.5054 51.4998 27.463 52.9908 C 27.4214 53.012 27.3813 53.0359 27.3427 53.0623 C 27.2973 53.094 27.2544 53.1293 27.2145 53.1678 C 25.7792 54.1697 24.0374 55.0071 22.2129 55.638 L 22.1766 55.6437 C 22.0816 55.6636 21.9899 55.6968 21.9043 55.7424 C 20.2107 56.3072 18.4605 56.6854 16.6848 56.8703 C 16.5795 56.8538 16.4723 56.8538 16.3671 56.8703 C 16.3078 56.8795 16.2493 56.8936 16.1923 56.9122 C 15.7577 56.944 15.3322 56.961 14.9192 56.961 C 13.392 56.961 12.1438 56.7341 11.3121 56.3188 C 10.4044 55.8649 10.2909 55.335 10.2909 54.9277 C 10.2909 54.1641 10.9354 53.7204 12.6408 52.7366 C 14.8909 51.4386 17.9738 49.6605 19.964 45.0924 C 20.2143 44.5178 19.9516 43.849 19.3771 43.5985 C 18.8027 43.3479 18.1338 43.6103 17.883 44.1846 C 17.0887 46.008 16.0947 47.3061 15.0463 48.2933 C 14.5289 48.2706 12.0962 48.0902 9.88922 46.7773 L 9.86993 46.7592 C 9.79679 46.7015 9.71627 46.6538 9.63052 46.6173 C 8.54924 45.9384 7.6607 44.9928 7.05028 43.8714 C 7.04347 43.8533 7.0378 43.834 7.02985 43.8158 C 7.00228 43.7525 6.96845 43.692 6.92887 43.6354 C 6.77242 43.3153 6.63857 42.9847 6.52833 42.646 C 6.26378 41.8303 6.13685 40.9764 6.15275 40.1191 C 6.15729 40.0624 6.15729 40.0055 6.15275 39.9489 C 6.23672 37.5842 7.30331 35.6643 7.722 34.9983 C 8.62747 33.5743 9.47507 32.9854 9.78824 32.8651 C 10.0594 33.1306 9.97773 34.3856 9.921 35.2354 C 9.85178 36.2884 9.77349 37.4832 10.0186 38.568 C 10.3408 39.992 11.1601 40.9769 12.4536 41.4954 C 13.7017 41.9935 15.1666 41.7155 16.4749 40.7306 C 18.4605 39.2351 19.0664 36.3973 17.8841 34.1291 C 16.1469 30.7955 13.9843 26.646 13.9843 22.9617 C 13.9843 18.3379 15.9189 14.0137 19.4307 10.7867 C 26.5409 4.2629 37.4602 4.2629 44.5705 10.7867 C 48.0879 14.0137 50.0169 18.3379 50.0169 22.9617 C 50.0169 26.646 47.8542 30.7909 46.117 34.1291 C 44.9347 36.3985 45.5406 39.2351 47.5263 40.7306 C 48.8346 41.7155 50.2994 41.9935 51.5476 41.4954 C 52.8411 40.978 53.6603 39.9931 53.9826 38.5691 C 54.2277 37.4843 54.1494 36.2895 54.0801 35.2366 C 54.0234 34.3867 53.9417 33.1317 54.2129 32.8662 C 54.5261 32.9797 55.3782 33.5754 56.2746 34.9994 C 56.6933 35.6643 57.7588 37.5831 57.8438 39.9455 C 57.8393 40.0032 57.8393 40.0613 57.8438 40.1191 C 57.87 41.3536 57.5954 42.576 57.0439 43.6808 C 57.0189 43.7228 56.9951 43.7659 56.9736 43.8101 L 56.9509 43.868 C 56.3652 44.9622 55.5108 45.8896 54.4682 46.5629 C 54.3452 46.6003 54.2299 46.6594 54.1278 46.7376 C 54.0845 46.7702 54.0439 46.8062 54.0064 46.8454 C 53.5529 47.105 53.0798 47.3288 52.5915 47.5148 C 51.425 47.9563 50.1986 48.2191 48.9537 48.2944 C 47.9064 47.3061 46.9113 46.0091 46.117 44.1857 C 45.8662 43.6114 45.1973 43.349 44.6229 43.5996 C 44.0484 43.8501 43.7857 44.5189 44.036 45.0935 C 46.0262 49.6616 49.1091 51.4397 51.3592 52.7377 C 53.0714 53.7204 53.7159 54.164 53.7159 54.9277 Z M 39.0151 27.8113 C 38.4202 27.6207 37.7832 27.9468 37.59 28.5409 C 37.5434 28.677 36.4008 31.887 31.8689 31.887 C 27.3371 31.887 26.1956 28.677 26.1513 28.5499 C 26.0491 28.1389 25.7265 27.8191 25.3147 27.7203 C 24.9028 27.6216 24.4703 27.7605 24.1928 28.0805 C 23.9154 28.4005 23.8393 28.8484 23.9955 29.2421 C 24.059 29.4429 25.643 34.1564 31.8735 34.1564 C 38.104 34.1564 39.6834 29.4429 39.7481 29.241 C 39.8409 28.9542 39.8157 28.6423 39.6782 28.374 C 39.5407 28.1058 39.3021 27.9033 39.0151 27.8113 Z"
       style="fill:#662947;fill-opacity:1;opacity:1;stop-opacity:1;stroke:none;stroke-width:0.11346747534" />
  </g>
</svg>
